<svg width="107" height="32" viewBox="0 0 107 32" fill="none" xmlns="http://www.w3.org/2000/svg">
<path d="M106.987 17.9874V5.23333C106.987 4.0869 106.06 3.15272 104.92 3.15272H80.2883C79.1498 3.15272 78.2222 4.08555 78.2222 5.23333V9.75551C75.611 5.78221 71.0666 3.15272 65.8967 3.15272C62.1511 3.15272 58.7317 4.53438 56.1394 6.80832C56.3407 5.85116 56.4454 4.8602 56.4454 3.8449V3.15137H27.4743L2.06611 3.15272C0.927668 3.15272 0 4.08555 0 5.23333V21.7768C0 22.3324 0.226883 22.8746 0.62292 23.2653L8.89675 31.4065C9.28474 31.7878 9.79757 31.9987 10.3399 31.9987H18.7131C19.2622 31.9987 19.7791 31.7837 20.1684 31.3957L27.4743 24.0926V31.9987H56.4454V31.3051C56.4454 30.2899 56.3407 29.2989 56.1394 28.3431C58.7317 30.617 62.1511 31.9987 65.8967 31.9987C71.0666 31.9987 75.611 29.3692 78.2222 25.3959V31.9987H104.92C106.059 31.9987 106.987 31.0659 106.987 29.9181V18.2726C107.005 18.178 107.007 18.0806 106.987 17.986V17.9874ZM51.5212 20.4465C50.0672 19.1703 48.3569 18.1834 46.4774 17.575C48.3569 16.9667 50.0672 15.9784 51.5212 14.7035C51.3305 15.631 51.2312 16.5922 51.2312 17.5764C51.2312 18.5606 51.3319 19.5191 51.5212 20.4465Z" fill="black"/>
<path d="M2.01772 0.00146484C0.90747 0.00146484 0.00396729 0.911308 0.00396729 2.02935V18.1564C0.00396729 18.6986 0.22548 19.2272 0.610778 19.607L8.67652 27.5442C9.05511 27.916 9.55452 28.1214 10.0835 28.1214H18.2459C18.7815 28.1214 19.285 27.9119 19.6649 27.5334L26.7869 20.4155L28.1294 19.0744L28.1965 19.0068V0.00146484H2.01772ZM26.854 18.443L26.7869 18.5106L18.7184 26.5735C18.5922 26.6992 18.4244 26.7695 18.2459 26.7695H10.0835C9.9076 26.7695 9.74113 26.7006 9.61493 26.5776L1.54919 18.6404C1.42031 18.5133 1.34647 18.3376 1.34647 18.1564V2.02935C1.34647 1.65622 1.64719 1.35339 2.01772 1.35339H26.854V18.443Z" fill="black"/>
<path d="M26.7869 1.35327V18.5105L18.7185 26.5734C18.5923 26.6991 18.4244 26.7694 18.2459 26.7694H10.0835C9.90762 26.7694 9.74115 26.7005 9.61496 26.5774L1.54921 18.6403C1.42033 18.5132 1.3465 18.3375 1.3465 18.1563V2.02923C1.3465 1.6561 1.64722 1.35327 2.01775 1.35327H13.429V18.7255C13.429 19.0986 13.7297 19.4014 14.1003 19.4014C14.4708 19.4014 14.7715 19.0986 14.7715 18.7255V1.35327H26.7869Z" fill="#FFFCE1"/>
<path d="M14.7715 1.08294V18.7255C14.7715 19.0987 14.4708 19.4015 14.1003 19.4015C13.7297 19.4015 13.429 19.0987 13.429 18.7255V1.08294C13.429 0.709813 13.7297 0.406982 14.1003 0.406982C14.2855 0.406982 14.4533 0.48269 14.5755 0.604363C14.6963 0.727388 14.7715 0.896378 14.7715 1.08294Z" fill="black"/>
<path d="M50.9962 10.5342C52.5616 8.93756 53.7511 6.97051 54.4196 4.77634C54.5404 4.38023 54.6438 3.976 54.7297 3.56502C54.9257 2.63219 55.0278 1.66557 55.0278 0.675961V0H26.7856V28.1213H55.0278V27.4454C55.0278 26.4558 54.9257 25.4891 54.7297 24.5577C54.5096 23.5018 54.1713 22.4892 53.7282 21.5348C53.1724 20.3356 52.4529 19.2284 51.599 18.2415C51.1735 17.7494 50.7157 17.2884 50.227 16.8598C48.8093 15.6161 47.1419 14.6535 45.3094 14.06C47.1419 13.4665 48.8093 12.5039 50.227 11.2602C50.4928 11.0276 50.7479 10.787 50.9949 10.5342H50.9962ZM41.0134 13.384V14.736C45.2342 14.736 48.9785 16.8152 51.2835 20.0057C51.7548 20.6587 52.1656 21.3577 52.5079 22.0945C53.1751 23.5289 53.5819 25.1065 53.6692 26.7694H28.1294V1.35192H53.6692C53.5819 3.01614 53.1738 4.59518 52.5066 6.03093C52.1656 6.76367 51.7561 7.45991 51.2876 8.10883C48.9825 11.3021 45.2356 13.384 41.0134 13.384Z" fill="black"/>
<path d="M52.5079 22.0943C53.1751 23.5287 53.5819 25.1064 53.6692 26.7693H41.5786V18.2752C41.5786 17.902 41.2793 17.5992 40.9074 17.5992C40.5355 17.5992 40.2361 17.902 40.2361 18.2752V26.7693H28.1295V19.0742L28.1966 19.0066V1.35181H40.2361V9.439C40.2361 9.81214 40.5368 10.115 40.9074 10.115C41.2779 10.115 41.5786 9.81214 41.5786 9.439V1.35181H53.6692C53.5819 3.01602 53.1738 4.59507 52.5066 6.03081C52.1656 6.76355 51.7561 7.45979 51.2876 8.10871C48.9825 11.302 45.2356 13.3839 41.0134 13.3839V14.7358C45.2343 14.7358 48.9785 16.8151 51.2836 20.0056C51.7548 20.6586 52.1656 21.3575 52.5079 22.0943Z" fill="#FFFCE1"/>
<path d="M41.5786 0.675961V9.43912C41.5786 9.81225 41.2792 10.1151 40.9073 10.1151C40.5355 10.1151 40.2361 9.81225 40.2361 9.43912V0.675961C40.2361 0.301479 40.5368 0 40.9073 0C41.2779 0 41.5786 0.301479 41.5786 0.675961Z" fill="black"/>
<path d="M41.5786 18.2753V27.4454C41.5786 27.8185 41.2792 28.1214 40.9073 28.1214C40.5355 28.1214 40.2361 27.8185 40.2361 27.4454V18.2753C40.2361 17.9022 40.5368 17.5994 40.9073 17.5994C41.2779 17.5994 41.5786 17.9022 41.5786 18.2753Z" fill="black"/>
<path d="M78.5403 14.0615C78.5403 14.1994 78.5376 14.3372 78.5336 14.4751L77.6006 14.9605V19.0825C77.2448 20.0005 76.7937 20.8711 76.2581 21.6849C73.7127 25.5582 69.2824 28.1214 64.2427 28.1214C60.5911 28.1214 57.2577 26.7749 54.7311 24.5578C53.8961 23.8277 53.1483 23.0004 52.5079 22.0946C52.1656 21.3578 51.7548 20.6588 51.2835 20.0059C50.811 19.0149 50.4539 17.9604 50.2283 16.8599C50.0431 15.9555 49.9451 15.02 49.9451 14.0615C49.9451 13.1029 50.0431 12.1647 50.2283 11.2603C50.4552 10.1571 50.8137 9.10125 51.2876 8.10894C51.7561 7.46002 52.1656 6.76378 52.5066 6.03104C53.1469 5.12525 53.8947 4.29652 54.7311 3.56513C57.2577 1.34798 60.5911 0.00146484 64.2427 0.00146484C69.2824 0.00146484 73.7127 2.56471 76.2581 6.43797C76.7937 7.25182 77.2448 8.12246 77.6006 9.04042V13.4396L78.4987 12.9732C78.5256 13.3328 78.5403 13.6951 78.5403 14.0615Z" fill="black"/>
<path d="M62.8922 25.5757C69.6691 25.5757 75.164 20.1734 75.164 13.5084C75.164 6.84344 69.6704 1.44116 62.8922 1.44116C56.1139 1.44116 50.6204 6.84344 50.6204 13.5084C50.6204 20.1734 56.1139 25.5757 62.8922 25.5757Z" fill="#FFFCE1"/>
<path d="M59.9883 14.3089C60.6958 14.1021 60.9804 12.9746 60.6233 11.7903C60.2662 10.606 59.4017 9.81376 58.6942 10.0193C57.9867 10.2261 57.7021 11.3536 58.0592 12.5379C58.4163 13.7222 59.2808 14.5157 59.9883 14.3089Z" fill="black"/>
<path d="M64.9421 12.5392C65.6496 12.3324 65.9342 11.2049 65.5771 10.0206C65.22 8.83631 64.3555 8.04274 63.648 8.24958C62.9405 8.45642 62.6558 9.58393 63.013 10.7682C63.3701 11.9525 64.2346 12.7461 64.9435 12.5392H64.9421Z" fill="black"/>
<path d="M62.723 19.4598C60.8878 19.4598 59.1909 18.7271 58.0659 17.4495L59.1318 16.5437C59.9883 17.5171 61.2973 18.0741 62.723 18.0741C65.1905 18.0741 67.1975 16.3734 67.1975 14.2833C67.1975 13.944 67.1452 13.6073 67.0405 13.2815L68.383 12.8638C68.5306 13.3248 68.6058 13.802 68.6058 14.2819C68.6058 17.1358 65.9665 19.4584 62.723 19.4584V19.4598Z" fill="black"/>
<path d="M102.285 0.00146484H78.2718C77.1616 0.00146484 76.2581 0.911308 76.2581 2.02935V28.1214H102.285C103.395 28.1214 104.299 27.2116 104.299 26.0936V2.02935C104.299 0.911308 103.395 0.00146484 102.285 0.00146484ZM102.956 26.0936C102.956 26.4667 102.656 26.7695 102.285 26.7695H77.6006V2.02935C77.6006 1.65622 77.9013 1.35339 78.2718 1.35339H102.285C102.656 1.35339 102.956 1.65622 102.956 2.02935V26.0936Z" fill="black"/>
<path d="M94.0543 19.5921C94.1738 19.8246 94.4074 19.9571 94.6503 19.9571C94.7551 19.9571 94.8598 19.9327 94.9578 19.8814L102.956 15.7201V26.0935C102.956 26.4666 102.656 26.7694 102.285 26.7694H77.6006V14.9604L78.5336 14.475L86.2315 10.4706C86.5618 10.2989 86.6907 9.89201 86.5202 9.56079C86.3497 9.22822 85.9456 9.09843 85.6167 9.27013L78.4987 12.973L77.6006 13.4395V2.02923C77.6006 1.6561 77.9013 1.35327 78.2718 1.35327H102.285C102.656 1.35327 102.956 1.6561 102.956 2.02923V14.2006L94.3429 18.6809C94.0127 18.8526 93.8838 19.2595 94.0543 19.5921Z" fill="#FFFCE1"/>
<path d="M86.2315 10.4706L78.5336 14.475L77.6006 14.9604L77.2367 15.1496C77.1387 15.201 77.034 15.2253 76.9293 15.2253C76.6863 15.2253 76.4527 15.0929 76.3332 14.8603C76.2822 14.7603 76.2581 14.6548 76.2581 14.5494C76.2581 14.3047 76.391 14.0695 76.6219 13.9491L77.6006 13.4395L78.4987 12.973L85.6166 9.27013C85.9455 9.09843 86.3496 9.22822 86.5201 9.56079C86.6906 9.89201 86.5617 10.2989 86.2315 10.4706Z" fill="black"/>
<path d="M104.299 14.7551C104.256 14.9416 104.135 15.1079 103.953 15.2026L102.956 15.7204L94.9578 19.8816C94.8598 19.9329 94.7551 19.9573 94.6503 19.9573C94.4073 19.9573 94.1737 19.8248 94.0543 19.5923C93.8838 19.2597 94.0126 18.8528 94.3429 18.6811L102.956 14.2008L103.338 14.0021C103.667 13.8304 104.071 13.9602 104.241 14.2927C104.268 14.3441 104.287 14.3982 104.299 14.4523C104.323 14.5536 104.322 14.6564 104.299 14.7551Z" fill="black"/>
<path d="M107.001 7.71418V4.94815C107.001 2.21591 104.802 0.00146484 102.089 0.00146484H100.952L103.977 1.13302V4.49255L107.001 7.71418Z" fill="black"/>
<path d="M76.2581 28.1213C76.2581 28.1213 78.1725 31.9567 78.2221 31.9986C78.2718 32.0405 79.8828 28.662 79.8828 28.662L78.9431 27.4453L76.2581 28.1213Z" fill="black"/>
<path d="M26.7869 28.1212L27.4756 31.9985L29.2706 28.3916L27.5253 27.8508L26.7869 28.1212Z" fill="black"/>
<path d="M48.9986 15.5186C49.0053 15.5484 49.0053 16.6299 49.1396 16.6299C49.2738 16.6299 50.7506 17.8466 50.7506 17.7114C50.7506 17.5763 50.3478 15.8188 50.3478 15.8188L49.8752 15.2185L48.9999 15.5173L48.9986 15.5186Z" fill="black"/>
</svg>
